<?xml version="1.0" encoding="utf-8"?>
<!-- Generator: Adobe Illustrator 21.0.0, SVG Export Plug-In . SVG Version: 6.00 Build 0)  -->
<svg version="1.1" id="logo_group" xmlns="http://www.w3.org/2000/svg" xmlns:xlink="http://www.w3.org/1999/xlink" x="0px" y="0px"
	 viewBox="0 0 108 108" style="enable-background:new 0 0 108 108;" xml:space="preserve">
<style type="text/css">
	.st0{fill:#D3B32A;}
	.st1{fill:#F9D643;}
	.st2{fill:#FFFFFF;}
	.st3{fill:none;stroke:#000000;stroke-width:4.8;stroke-miterlimit:10;}
	.st4{fill:none;stroke:#000000;stroke-width:4.5;stroke-miterlimit:10;}
</style>
<g>
	<path class="st0" d="M81.4,105.6H26.9c-13.9,0-25.2-11.3-25.2-25.2V25.9c0-13.9,11.3-25.2,25.2-25.2h54.4
		c13.9,0,25.2,11.3,25.2,25.2v54.5C106.6,94.3,95.2,105.6,81.4,105.6z"/>
	<path class="st1" d="M1.9,82l104.7-56.8c0,0-0.3-24.6-27.9-24.6L24.6,0.7c0,0-19.8,2.4-22.7,22.4V82z"/>
	<circle class="st2" cx="52.9" cy="52.8" r="33.9"/>
	<circle class="st1" cx="27.2" cy="58.3" r="1.6"/>
	<circle class="st1" cx="30.2" cy="52.7" r="0.7"/>
	<circle class="st1" cx="35" cy="56.9" r="1.1"/>
	<circle class="st0" cx="44.6" cy="63.4" r="1.1"/>
	<circle class="st0" cx="43.1" cy="69.8" r="0.8"/>
	<circle class="st0" cx="36.8" cy="73" r="0.8"/>
	<circle class="st0" cx="56" cy="77" r="1.4"/>
	<circle class="st0" cx="53.6" cy="72.1" r="0.8"/>
	<circle class="st0" cx="56" cy="66.4" r="0.8"/>
	<circle class="st0" cx="62" cy="80" r="0.7"/>
	<circle class="st0" cx="70.2" cy="71.6" r="0.8"/>
	<circle class="st0" cx="64.4" cy="61.4" r="1.2"/>
	<circle class="st0" cx="76.2" cy="67.1" r="1.7"/>
	<circle class="st0" cx="68.4" cy="50.1" r="0.9"/>
	<circle class="st0" cx="76.3" cy="51.2" r="0.9"/>
	<circle class="st0" cx="80.3" cy="56.5" r="1.1"/>
	<circle class="st0" cx="79.9" cy="46.1" r="0.9"/>
	<circle class="st1" cx="46.8" cy="28.3" r="1.3"/>
	<circle class="st1" cx="53.3" cy="31.9" r="1"/>
	<circle class="st1" cx="52.3" cy="38.8" r="0.9"/>
	<circle class="st1" cx="36.3" cy="33.2" r="0.8"/>
	<circle class="st1" cx="36.6" cy="38" r="0.9"/>
	<circle class="st1" cx="30.2" cy="40.6" r="1.4"/>
	<circle class="st1" cx="43.3" cy="45.4" r="1"/>
	<polygon class="st1" points="60.8,24.4 53.7,48.9 54.9,51.4 57.4,52 79.1,40 76.9,36.2 59.2,45.7 64.8,26 	"/>
	<path class="st1" d="M24.9,44c0,0-0.5,1.2-0.4,1.4c0.1,0.3,26.1,7.7,26.1,7.7l-0.9-2L24.9,44z"/>
	<polygon class="st1" points="50.5,53.8 50,55.9 28,68 27.1,66.6 	"/>
	<path d="M52.7,18.3c-18.9,0-34.2,15.3-34.2,34.2c0,18.9,15.3,34.2,34.2,34.2c18.9,0,34.2-15.3,34.2-34.2
		C86.9,33.6,71.6,18.3,52.7,18.3z M52.7,81.6c-16,0-29-13-29-29s13-29,29-29s29,13,29,29S68.7,81.6,52.7,81.6z"/>
	<path class="st2" d="M67.2,17.1c0,0,13.3,4.3,18,14.6l-26,14L67.2,17.1z"/>
	<circle class="st1" cx="70.9" cy="32.3" r="0.9"/>
	<circle class="st1" cx="79.6" cy="30.6" r="0.9"/>
	<line class="st3" x1="38.7" y1="26.8" x2="67.1" y2="78.1"/>
	<line class="st4" x1="52.9" y1="53.6" x2="45.2" y2="81.5"/>
	<line class="st4" x1="54.1" y1="53.4" x2="81.8" y2="61"/>
	<circle class="st1" cx="62.8" cy="40.5" r="1.4"/>
	<circle class="st1" cx="69.5" cy="27.9" r="2.5"/>
	<circle class="st1" cx="67.7" cy="36.5" r="0.6"/>
	<circle class="st1" cx="65.5" cy="33" r="0.9"/>
	<circle class="st1" cx="76.2" cy="26.5" r="0.9"/>
</g>
</svg>
