<?xml version="1.0" encoding="utf-8"?>
<!-- Generator: Adobe Illustrator 21.0.0, SVG Export Plug-In . SVG Version: 6.00 Build 0)  -->
<svg version="1.1" id="logo_group" xmlns="http://www.w3.org/2000/svg" xmlns:xlink="http://www.w3.org/1999/xlink" x="0px" y="0px"
	 viewBox="0 0 700 700" style="enable-background:new 0 0 700 700;" xml:space="preserve">
<style type="text/css">
	.st0{fill:#D3B32A;}
	.st1{fill:#F9D643;}
	.st2{fill:#FFFFFF;}
	.st3{fill:none;stroke:#000000;stroke-width:4.8;stroke-miterlimit:10;}
	.st4{fill:none;stroke:#000000;stroke-width:4.5;stroke-miterlimit:10;}
</style>
<g>
	<path class="st0" d="M377.4,401.6h-54.5c-13.9,0-25.2-11.3-25.2-25.2v-54.5c0-13.9,11.3-25.2,25.2-25.2h54.5
		c13.9,0,25.2,11.3,25.2,25.2v54.5C402.6,390.3,391.2,401.6,377.4,401.6z"/>
	<path class="st1" d="M297.9,378l104.7-56.9c0,0-0.3-24.6-27.9-24.6l-54.1,0.1c0,0-19.8,2.4-22.7,22.4V378z"/>
	<circle class="st2" cx="348.9" cy="348.8" r="33.9"/>
	<circle class="st1" cx="323.2" cy="354.3" r="1.6"/>
	<circle class="st1" cx="326.2" cy="348.7" r="0.7"/>
	<circle class="st1" cx="331" cy="352.9" r="1.1"/>
	<circle class="st0" cx="340.6" cy="359.4" r="1.1"/>
	<circle class="st0" cx="339.1" cy="365.8" r="0.8"/>
	<circle class="st0" cx="332.8" cy="369" r="0.8"/>
	<circle class="st0" cx="352" cy="373" r="1.4"/>
	<circle class="st0" cx="349.6" cy="368.1" r="0.8"/>
	<circle class="st0" cx="352" cy="362.4" r="0.8"/>
	<circle class="st0" cx="358" cy="376" r="0.7"/>
	<circle class="st0" cx="366.2" cy="367.6" r="0.8"/>
	<circle class="st0" cx="360.4" cy="357.4" r="1.2"/>
	<circle class="st0" cx="372.2" cy="363.1" r="1.7"/>
	<circle class="st0" cx="364.4" cy="346.1" r="0.9"/>
	<circle class="st0" cx="372.3" cy="347.2" r="0.9"/>
	<circle class="st0" cx="376.3" cy="352.5" r="1.1"/>
	<circle class="st0" cx="375.9" cy="342.1" r="0.9"/>
	<circle class="st1" cx="342.8" cy="324.3" r="1.3"/>
	<circle class="st1" cx="349.3" cy="327.9" r="1"/>
	<circle class="st1" cx="348.3" cy="334.8" r="0.9"/>
	<circle class="st1" cx="332.3" cy="329.2" r="0.8"/>
	<circle class="st1" cx="332.6" cy="334" r="0.9"/>
	<circle class="st1" cx="326.2" cy="336.6" r="1.4"/>
	<circle class="st1" cx="339.3" cy="341.4" r="1"/>
	<polygon class="st1" points="356.8,320.4 349.7,344.9 350.9,347.4 353.4,348 375.1,336 372.9,332.2 355.2,341.7 360.8,322 	"/>
	<path class="st1" d="M320.9,340c0,0-0.4,1.2-0.4,1.5c0.1,0.3,26.1,7.7,26.1,7.7l-0.9-2L320.9,340z"/>
	<polygon class="st1" points="346.5,349.8 346,351.9 324,364 323.1,362.6 	"/>
	<path d="M348.7,314.3c-18.9,0-34.2,15.3-34.2,34.2c0,18.9,15.3,34.2,34.2,34.2c18.9,0,34.2-15.3,34.2-34.2
		C382.9,329.6,367.6,314.3,348.7,314.3z M348.7,377.6c-16,0-29-13-29-29c0-16,13-29,29-29s29,13,29,29
		C377.7,364.6,364.7,377.6,348.7,377.6z"/>
	<path class="st2" d="M363.2,313.1c0,0,13.3,4.3,18,14.6l-26,14L363.2,313.1z"/>
	<circle class="st1" cx="366.9" cy="328.3" r="0.9"/>
	<circle class="st1" cx="375.6" cy="326.6" r="0.9"/>
	<line class="st3" x1="334.7" y1="322.8" x2="363.1" y2="374.1"/>
	<line class="st4" x1="348.9" y1="349.6" x2="341.2" y2="377.5"/>
	<line class="st4" x1="350.1" y1="349.4" x2="377.8" y2="357"/>
	<circle class="st1" cx="358.8" cy="336.5" r="1.4"/>
	<circle class="st1" cx="365.5" cy="323.9" r="2.5"/>
	<circle class="st1" cx="363.7" cy="332.5" r="0.6"/>
	<circle class="st1" cx="361.5" cy="329" r="0.9"/>
	<circle class="st1" cx="372.2" cy="322.5" r="0.9"/>
</g>
</svg>
