<svg xmlns="http://www.w3.org/2000/svg" viewBox="0 0 349.5 350.15"><defs><style>.a{fill:#d3b32a;}.b{fill:#f9d643;}.c{fill:#fff;}.d,.e{fill:none;stroke:#000;stroke-miterlimit:10;}.d{stroke-width:16px;}.e{stroke-width:15px;}</style></defs><title>logo1</title><rect class="a" y="0.65" width="349.5" height="349.5" rx="84" ry="84"/><path class="b" d="M18.85,287.5,367.91,98S367,16.13,275,16l-180.5.5S28.6,24.5,18.85,91Z" transform="translate(-18.41 -16)"/><circle class="c" cx="170.59" cy="174.25" r="113"/><circle class="b" cx="84.97" cy="192.5" r="5.25"/><circle class="b" cx="95.03" cy="173.94" r="2.44"/><circle class="b" cx="111.03" cy="187.94" r="3.56"/><circle class="a" cx="142.78" cy="209.56" r="3.81"/><circle class="a" cx="137.9" cy="230.69" r="2.69"/><circle class="a" cx="116.9" cy="241.44" r="2.69"/><circle class="a" cx="181.03" cy="254.69" r="4.81"/><circle class="a" cx="172.78" cy="238.56" r="2.69"/><circle class="a" cx="181.03" cy="219.44" r="2.56"/><circle class="a" cx="200.9" cy="264.69" r="2.19"/><circle class="a" cx="228.22" cy="236.75" r="2.75"/><circle class="a" cx="208.78" cy="202.81" r="4.06"/><circle class="a" cx="248.23" cy="221.77" r="5.63"/><circle class="a" cx="222.34" cy="165.25" r="3.13"/><circle class="a" cx="248.72" cy="168.75" r="2.88"/><circle class="a" cx="261.78" cy="186.44" r="3.56"/><circle class="a" cx="260.53" cy="151.94" r="3.06"/><circle class="b" cx="150.28" cy="92.41" r="4.44"/><circle class="b" cx="171.9" cy="104.35" r="3.31"/><circle class="b" cx="168.65" cy="127.44" r="2.94"/><circle class="b" cx="115.34" cy="108.75" r="2.63"/><circle class="b" cx="116.28" cy="124.69" r="2.94"/><circle class="b" cx="94.97" cy="133.51" r="4.75"/><circle class="b" cx="138.59" cy="149.38" r="3.25"/><polygon class="b" points="196.74 79.54 173.09 161.13 177.34 169.5 185.47 171.38 257.85 131.51 250.69 118.85 191.43 150.33 210.08 84.88 196.74 79.54"/><path class="b" d="M95.67,160.67s-1.5,3.92-1.33,4.83,87.17,25.67,87.17,25.67l-3.17-6.67Z" transform="translate(-18.41 -16)"/><polygon class="b" points="162.59 177.33 160.76 184.5 87.51 224.78 84.51 220.11 162.59 177.33"/><path d="M188.23,75.15A114.11,114.11,0,1,0,302.33,189.26,114.11,114.11,0,0,0,188.23,75.15Zm0,211A96.75,96.75,0,1,1,285,189.42,96.75,96.75,0,0,1,188.25,286.17Z" transform="translate(-18.41 -16)"/><path class="c" d="M236.59,71s44.26,14.32,59.9,48.82l-86.59,46.7Z" transform="translate(-18.41 -16)"/><circle class="b" cx="230.47" cy="105.88" r="2.88"/><circle class="b" cx="259.68" cy="100.25" r="3"/><line class="d" x1="123.23" y1="87.33" x2="217.77" y2="258.33"/><line class="e" x1="170.65" y1="176.67" x2="144.9" y2="269.67"/><line class="e" x1="174.5" y1="176.17" x2="266.99" y2="201.53"/><circle class="b" cx="203.47" cy="133.13" r="4.63"/><circle class="b" cx="225.97" cy="91.13" r="8.38"/><circle class="b" cx="219.84" cy="119.75" r="2"/><circle class="b" cx="212.72" cy="108.13" r="3.13"/><circle class="b" cx="248.34" cy="86.5" r="3"/></svg>